<svg width="1150" height="1150" version="1.1" viewBox="0 0 1150 1150" xmlns="http://www.w3.org/2000/svg">
  <path d="m375.47 1224c-51.195-6.4668-99.08-43.367-126.93-97.811-3.0755-6.0126-10.1-20.746-15.611-32.742-31.919-69.481-62.016-107.54-95.131-120.32-4.4486-1.7156-10.167-3.3643-12.709-3.6638l-4.6202-0.5446-13.371 22.747c-32.15 54.696-48.372 84.287-64.951 118.48-12.163 25.087-13.178 27.64-13.178 33.134 0 4.4014-0.6787 4.6779-4.3651 1.7782-7.8248-6.155 0.9973-32.557 28.354-84.857 12.373-23.654 26.963-49.871 41.082-73.82l10.759-18.25h-5.4322c-6.6302 0-22.417 3.3285-31.744 6.6932-8.2923 2.9912-11.301 2.6169-17.903-2.2273-6.6132-4.8524-6.2511-6.3593 2.5926-10.789 8.6513-4.3336 19.623-7.323 30.403-8.2834 5.6507-0.50347 11.282-2.0216 20.753-5.5953 7.1493-2.6974 14.241-5.6679 15.759-6.6012 1.8526-1.1389 14.688-20.932 39.037-60.197 44.988-72.547 55.201-88.653 74.193-117 16.866-25.173 37.457-54.219 41.088-57.959l2.3876-2.4589 2.7683 2.0611c6.299 4.6898 7.2602 2.6988-25.777 53.393-51.43 78.917-107.95 167.95-107.95 170.04 0 0.43416 4.6125-1.3701 10.25-4.0094 53.925-25.246 158.23-85.294 231.25-133.12 36.064-23.624 51.72-31.948 60.093-31.948 5.0943 0 11.665 4.061 15.434 9.5383 5.6954 8.278 25.954 20.941 63.762 39.854 27.18 13.597 52.696 25.431 75.712 35.114 17.093 7.1912 68.347 27.183 71.746 27.984 1.9894 0.46912 3.5462-1.433 13.254-16.194 14.297-21.739 38.591-56.497 54.026-77.297 9.1567-12.339 14.045-20.104 19.387-30.792 3.9286-7.8606 7.8088-14.548 8.6228-14.86 1.8508-0.71021 5.9204 1.8918 8.0557 5.1508 1.5755 2.4045 1.0407 3.8356-19.892 53.236-28.912 68.232-36 85.307-35.566 85.683 0.20147 0.17425 4.7728 1.0498 10.158 1.9457 10.484 1.744 14.597 3.3577 18.958 7.438 3.4593 3.2366 3.5288 5.9521 0.1849 7.2235-3.6557 1.3899-20.706 1.1395-28.78-0.42264l-6.8451-1.3244-2.0072 4.6111c-4.1924 9.6309-24.996 62.749-35.096 89.611-37.373 99.398-59.97 172.54-58.32 188.77l0.58646 5.7688-2.9772-1.5396c-6.372-3.2951-7.8756-9.6672-6.047-25.628 1.6027-13.99 4.1663-25.523 11.105-49.959 13.721-48.322 32.329-100.49 67.301-188.67 5.7283-14.444 10.063-26.48 9.632-26.746-1.2104-0.74808-13.344-4.4646-14.624-4.4791-1.4048-0.0159-9.0146 11.619-47.173 72.126-44.704 70.887-66.01 103.86-67.106 103.86-1.4504 0-3.0849-2.5019-3.0849-4.7222 0-5.9492 20.684-41.774 63.957-110.78 14.749-23.519 35.074-56.831 35.929-58.888 0.23636-0.56857-9.2732-0.6611-24.5-0.23839-49.289 1.3683-211.4 7.9407-262.39 10.638-20.477 1.0832-31.6 1.2559-30.823 0.47837 0.45501-0.455 44.608-3.3915 142.32-9.4654 46.33-2.8799 104-5.7766 142.77-7.1716 18.573-0.66823 33.423-1.5053 33-1.8601-0.42281-0.35484-7.7437-3.262-16.269-6.4603-46.553-17.465-76.493-30.322-116.5-50.026-36.067-17.764-57.874-30.453-75.344-43.843l-6.5224-4.9992-5.2738 1.1062c-15.972 3.3503-46.957 20.537-139.86 77.579-53.377 32.773-69.322 42.21-94 55.632-19.007 10.338-62.684 32.423-74.014 37.426-5.1305 2.2652-6.4531 3.4212-9 7.8662-1.6421 2.8659-3.1128 5.4835-3.2682 5.8169-0.15541 0.33339 3.2196 2.0709 7.5 3.8611 23.232 9.7165 46.655 28.473 66.212 53.022 18.65 23.41 34.072 50.048 51.626 89.168 15.066 33.576 28.299 55.383 42.914 70.719 18.342 19.246 35.851 29.121 61.734 34.815 6.6163 1.4557 12.548 1.8169 29.296 1.7842 19.009-0.037 22.223-0.3014 33.902-2.7865 33.387-7.1046 74.22-25.402 96.236-43.123 3.7744-3.0381 7.4341-5.5295 8.1328-5.5365 1.9648-0.02-1.8088 6.6464-8.6019 15.195-17.818 22.422-47.052 39.328-79.104 45.745-18.978 3.7997-44.844 5.0223-61.565 2.9102zm357.92-337.74c0.69972-1.1322-4.2984-2.1218-10.716-2.1218-6.7028 0-5.2919 1.125 2.5257 2.0139 3.4463 0.39187 6.5769 0.77405 6.957 0.84931 0.38004 0.0752 0.93524-0.25839 1.2338-0.74143zm-18.366-35.622c5.9977-14.85 10.796-27.352 10.662-27.782-0.23986-0.77323-37.721 53.66-37.721 54.781 0 0.31969 3.6346 0.45056 8.077 0.29081l8.077-0.29044zm-341.61 277.21c-0.27123-0.7068-0.36961-9.1386-0.21862-18.737 0.24696-15.699 0.45034-17.486 2.0245-17.788 1.5474-0.2972 1.75 0.579 1.75 7.5705 0 4.3487 0.28296 8.1897 0.6288 8.5355s4.7333-3.1779 9.75-7.8306c8.1373-7.5468 12.621-10.23 12.621-7.5534 0 0.5014-4.1024 4.6963-9.1166 9.3222l-9.1166 8.4108 9.6166 8.8779c5.2891 4.8828 9.6166 9.2378 9.6166 9.6778 0 2.703-5.1732-0.3074-13.232-7.7002-5.0963-4.675-9.6039-8.5-10.017-8.5s-0.75085 3.825-0.75085 8.5c0 6.9663-0.27631 8.5-1.5314 8.5-0.84227 0-1.7533-0.5783-2.0245-1.2851zm39.556 1.0265c0-0.5282 15.54-35.288 16.314-36.491 2.0011-3.1103 3.8906-0.3148 11.582 17.136 4.4571 10.112 8.1038 18.662 8.1038 19s-0.84 0.6145-1.8667 0.6145c-1.2981 0-2.5042-1.5341-3.9598-5.0367l-2.0932-5.0367-19.58 0.5734-2.2693 4.75c-1.5785 3.3042-2.8722 4.75-4.25 4.75-1.0894 0-1.9807-0.1163-1.9807-0.2586zm26.015-13.491c0.0406-2.058-7.4334-18.23-8.1085-17.544-1.4306 1.4525-7.7633 17.104-7.1632 17.704 0.86984 0.8698 15.254 0.7193 15.272-0.1599zm27.213-5 0.27207-18.75 5.5-0.3223c8.8447-0.5185 15.744 0.698 18.783 3.3118 2.3051 1.9827 2.7174 3.1222 2.7174 7.5105 0 4.372-0.41551 5.5306-2.6829 7.4809-1.4756 1.2692-3.2756 2.5145-4 2.7673-1.0404 0.3631-0.98202 0.8581 0.27769 2.3557 1.7771 2.1129 7.9052 12.786 7.9052 13.768 0 0.3455-0.90013 0.6282-2.0003 0.6282-1.381 0-2.8516-1.5828-4.75-5.1127-5.1338-9.5457-6.7158-10.887-12.839-10.887h-5.4111v8c0 7.3625-0.16115 8-2.0221 8-1.9672 0-2.0147-0.5087-1.75-18.75zm18.01-1.2993c5.8818-1.6335 7.471-6.508 3.6892-11.316-1.9276-2.4506-2.627-2.6349-10-2.6349h-7.9274v6.8334c0 3.7583 0.3 7.1333 0.66667 7.5 1.0187 1.0187 9.3738 0.7831 13.572-0.3827zm29.762 1.0493c0-17.697 0.13253-19.121 1.75-18.81 1.5914 0.3065 1.75 2.0117 1.75 18.81s-0.15865 18.503-1.75 18.81c-1.6175 0.3115-1.75-1.113-1.75-18.81zm24.228 0.3277c0.21814-15.08 0.54322-18.828 1.6332-18.828 0.74849 0 4.4454 5.85 8.2155 13 3.77 7.15 7.1106 13 7.4236 13s3.6536-5.85 7.4236-13c3.77-7.15 7.467-13 8.2155-13 1.09 0 1.4151 3.7474 1.6332 18.828 0.25407 17.564 0.1534 18.805-1.5 18.488-1.5617-0.2988-1.8318-1.9422-2.2724-13.828l-0.5-13.488-5.835 10.807c-3.9886 7.3872-6.3192 10.71-7.3654 10.5-0.84171-0.1688-4.066-5.032-7.165-10.807l-5.6346-10.5-0.5 13.488c-0.44058 11.886-0.71064 13.529-2.2724 13.828-1.6534 0.3163-1.7541-0.9245-1.5-18.488zm129-0.078c0.23041-15.879 0.50174-18.75 1.7721-18.75 1.1886 0 1.5603 1.7124 1.7904 8.25l0.29044 8.25h22.838l0.29044-8.25c0.23015-6.5376 0.60179-8.25 1.7904-8.25 1.2703 0 1.5417 2.8709 1.7721 18.75 0.26468 18.241 0.21719 18.75-1.75 18.75-1.8708 0-2.0221-0.6358-2.0221-8.5v-8.5h-23v8.5c0 7.8642-0.15124 8.5-2.0221 8.5-1.9672 0-2.0147-0.5088-1.75-18.75zm57.514 16.583c-5.6935-3.3866-8.049-9.0778-7.5823-18.32 0.27708-5.4871 0.90528-8.1229 2.4192-10.151 7.5635-10.13 22.459-9.6662 28.476 0.8876 4.8192 8.4535 2.618 21.998-4.3854 26.985-4.5916 3.2695-13.939 3.5646-18.927 0.5974zm14.228-2.1122c4.5917-2.3235 7.03-7.3243 7.03-14.418 0-10.723-3.7516-15.319-12.473-15.28-5.6748 0.025-8.4205 1.7043-10.92 6.6781-2.1297 4.2388-2.0579 12.893 0.14359 17.3 2.9025 5.8102 10.645 8.541 16.218 5.7207zm31.258-14.393c0.21814-15.08 0.54322-18.828 1.6332-18.828 0.74849 0 4.4454 5.85 8.2155 13 3.77 7.15 7.1106 13 7.4236 13s3.6536-5.85 7.4236-13c3.77-7.15 7.467-13 8.2155-13 1.09 0 1.4151 3.7473 1.6332 18.828 0.25407 17.564 0.1534 18.805-1.5 18.488-1.5617-0.2988-1.8318-1.9422-2.2724-13.828l-0.5-13.488-5.835 10.807c-3.9886 7.3872-6.3192 10.71-7.3654 10.5-0.84171-0.1688-4.066-5.0319-7.165-10.807l-5.6346-10.5-0.5 13.488c-0.44058 11.885-0.71064 13.529-2.2724 13.828-1.6534 0.3164-1.7541-0.9245-1.5-18.488zm55.216 17.387c-0.27123-0.7068-0.36961-9.1443-0.21862-18.75l0.27454-17.465h11.486c10.05 0 11.528 0.2142 11.816 1.713 0.29047 1.5082-0.84329 1.7472-9.4863 2l-9.8162 0.287v12l9.3159 0.2884c8.1658 0.2528 9.2757 0.4997 8.9899 2-0.27012 1.4181-1.8674 1.7973-9.3159 2.2116l-8.9899 0.5v12l9.4897 0.5c8.0069 0.4218 9.5418 0.7734 9.8233 2.25 0.30222 1.5853-0.75856 1.75-11.271 1.75-8.5305 0-11.735-0.3405-12.098-1.2852zm75.33-15.465-0.2742-16.75-6.25-0.2978c-5.461-0.2601-6.25-0.5475-6.25-2.2767 0-1.895 0.62553-1.9673 14.737-1.7023 13.112 0.2462 14.774 0.4698 15.073 2.0268 0.2923 1.5232-0.5159 1.75-6.2375 1.75h-6.5733v17c0 16.264-0.086 17-1.9758 17-1.8782 0-1.9894-0.8275-2.25-16.75zm33.67 15.465c-0.2713-0.7068-0.3696-9.1443-0.2186-18.75l0.2745-17.465h11.486c10.05 0 11.528 0.2142 11.816 1.713 0.2905 1.5082-0.8433 1.7472-9.4863 2l-9.8162 0.287v12l9.3159 0.2884c8.1658 0.2528 9.2757 0.4997 8.9899 2-0.2701 1.4181-1.8674 1.7973-9.3159 2.2116l-8.9899 0.5v12l9.4897 0.5c8.0069 0.4218 9.5418 0.7734 9.8233 2.25 0.3022 1.5853-0.7585 1.75-11.271 1.75-8.5304 0-11.735-0.3405-12.098-1.2852zm37.556 0.7842c0-1.4424 15.343-35.218 16.564-36.463 1.2605-1.2857 1.6058-1.2857 2.8316 0 1.0556 1.1072 12.378 25.889 16.317 35.714 0.3047 0.7599-0.314 1.25-1.578 1.25-1.5416 0-2.6354-1.2929-4.2301-5l-2.151-5h-19.412l-2.3419 5c-1.5569 3.324-2.955 5-4.1709 5-1.006 0-1.8291-0.2255-1.8291-0.501zm25.424-14.749c-0.3908-1.2375-2.2469-5.625-4.1247-9.75l-3.4141-7.5-3.3893 7.7941c-5.5567 12.778-5.8776 11.706 3.5038 11.706 7.9799 0 8.1212-0.043 7.4243-2.25zm27.803-3.4224c0.2182-15.08 0.5433-18.828 1.6333-18.828 0.7485 0 4.4455 5.85 8.2155 13s7.1106 13 7.4236 13 3.6536-5.85 7.4236-13 7.467-13 8.2155-13c1.09 0 1.4151 3.7473 1.6333 18.828 0.254 17.564 0.1533 18.805-1.5 18.488-1.5618-0.2988-1.8318-1.9422-2.2724-13.828l-0.5-13.488-5.835 10.807c-3.9885 7.3872-6.3192 10.71-7.3653 10.5-0.8418-0.1688-4.066-5.0319-7.1651-10.807l-5.6346-10.5-0.5 13.488c-0.4406 11.885-0.7106 13.529-2.2724 13.828-1.6533 0.3164-1.754-0.9245-1.5-18.488zm-84.478-34.408c-1.4738-0.8584-1.75-2.5301-1.75-10.591 0-22.277 10.302-70.127 29.385-136.48 14.096-49.017 31.262-101.89 33.299-102.57 0.5571-0.18569 2.0412 0.4951 3.2981 1.5129l2.2852 1.8505-2.2033 10.432c-4.2096 19.931-12.027 49.691-25.07 95.432-16.084 56.408-22.725 82.011-28.015 108-4.2452 20.855-7.5648 33.521-8.7719 33.47-0.3892-0.017-1.4951-0.4891-2.4576-1.0497zm-26.55-27.12c-2.0785-2.0786-1.4366-20.244 1.2826-36.296 1.3655-8.0602 4.9655-25.558 8-38.883 3.0346-13.326 5.5174-24.649 5.5174-25.163 0-0.51374-3.6473 5.5856-8.1051 13.554-10.126 18.101-21.361 35.423-24.656 38.014-3.1271 2.4597-6.9074 2.509-10.505 0.1367-4.015-2.6474-5.6665-5.2288-5.7026-8.9131-0.0415-4.2399-1.195-4.1049-4.271 0.5-3.7911 5.6754-10.724 12.083-14.378 13.289-4.771 1.5746-8.7231-0.8035-11.964-7.199-5.2738-10.407-4.2166-19.578 4.4445-38.554 4.824-10.569 4.9949-10.792 8.4876-11.094 3.979-0.34365 7.6491 1.1896 7.6491 3.1955 0 0.72452-2.2006 5.9962-4.8903 11.715-8.3523 17.758-12.078 32.205-8.6452 33.522 3.8764 1.4875 12.322-8.5451 24.237-28.79 4.0997-6.966 8.3008-13.432 9.3358-14.369 2.0452-1.8508 5.131-1.5268 8.4286 0.88512 1.8446 1.3492 1.882 1.7687 0.6057 6.7934-0.7482 2.9455-3.2742 10.305-5.6134 16.355-5.0172 12.977-6.0186 17.036-4.4429 18.01 1.8426 1.1388 5.6938-3.2491 14.49-16.51 17.174-25.89 32.673-55.896 37.488-72.58 7.7714-26.924 24.14-75.774 26.084-77.843 0.5269-0.56081 1.9065-0.44927 3.5165 0.28429 2.438 1.1108 2.5969 1.5437 1.9914 5.4229-1.9625 12.573-9.0656 40.733-19.711 78.146-14.822 52.091-21.833 79.066-26.301 101.2-5.4489 26.995-8.0139 36.369-9.9518 36.369-0.6723 0-1.7624-0.54-2.4224-1.2zm-618.76-17.871c-2.7546-2.8804-2.9303-3.5483-2.8277-10.75 0.0921-6.4615 0.84971-9.732 4.7793-20.631 2.5684-7.1239 4.4702-13.473 4.2263-14.108-0.24398-0.63581-2.2473-1.4444-4.4519-1.797-2.2046-0.35253-5.3456-1.7662-6.98-3.1415-1.6345-1.3753-3.2015-2.5006-3.4824-2.5006-0.28085 0-1.6906 2.0135-3.1328 4.4745-7.5805 12.935-24 29.376-31.617 31.658-9.9541 2.9823-16.927-7.4303-12.402-18.519 1.2178-2.9842-0.68683-1.7687-10.399 6.6364-5.1714 4.4756-9.8614 7.75-11.1 7.75-1.1799 0-3.1964-1.1341-4.4811-2.5203-7.8106-8.4277-3.0173-26.056 10.894-40.066 11.311-11.391 19.467-13.15 26.831-5.7857 4.4732 4.4732 6.7356 10.912 6.6061 18.801-0.13629 8.3022-0.96607 10.668-4.4105 12.578-2.2525 1.2485-3.3675 3.0047-4.7126 7.4227-2.645 8.6882-1.5617 9.3031 7.9849 4.5327 7.0623-3.5291 15.446-11.993 22.725-22.941 4.3831-6.5931 4.8635-7.8822 4.9968-13.407 0.2689-11.151 13.597-39.613 18.55-39.613 2.1517 0 6.967 4.1318 6.967 5.9781 0 0.58794-3.0946 7.0209-6.8768 14.295-9.5868 18.439-11.347 27.548-5.516 28.552 9.7681 1.6818 13.393 4.2731 13.393 9.5744 0 1.8702-2.0331 9.5162-4.5179 16.991-2.4848 7.4749-4.8073 15.702-5.161 18.282l-0.64307 4.6917 2.9156-2.0762c3.9947-2.8444 18.696-18.303 25.491-26.803 7.0549-8.8259 13.945-20.293 17.897-29.788 1.6895-4.0585 3.9774-8.3509 5.0841-9.5388 2.0537-2.2044 6.3503-2.9137 7.3964-1.2211 0.31907 0.51628-1.6794 8.2518-4.441 17.19-5.1919 16.804-5.6958 19.336-4.0505 20.353 1.907 1.1786 6.6784-2.4607 16.578-12.645 14.053-14.456 15.877-17.107 20.257-29.441 4.4187-12.443 5.805-13.503 11.271-8.6196l3.2395 2.8945-4.1579 13.436c-6.025 19.469-7.9915 26.893-7.124 26.893 1.1687 0 10.167-10.124 20.404-22.955 11.466-14.372 11.84-14.695 15.226-13.152 2.9326 1.3362 2.9355 0.79873-0.11325 20.607-3.6249 23.551-2.6412 23.701 19.558 2.9814 6.2649-5.8474 12.396-11.117 13.625-11.71 1.854-0.89474 3.046-0.57359 7 1.886 5.1982 3.2335 4.9754 2.3686 3.711 14.406-0.89664 8.5364 0.90789 12.537 6.0942 13.51 5.0937 0.95559 25.509-2.1902 43.415-6.6898 17.008-4.2738 17.045-4.2803 17.045-2.9624 0 0.94415-19.202 8.7917-33.5 13.691-5.9648 2.0438-10.035 2.7598-16 2.8146-7.0745 0.065-8.6196-0.2697-13.356-2.8929-6.3786-3.533-10.534-8.2852-12.986-14.851-0.98944-2.6494-2.1476-4.8397-2.5736-4.8674-0.42606-0.0277-5.7944 3.9995-11.93 8.9492-13.226 10.671-17.247 13.226-20.816 13.231-3.398 0-7.5082-4.7393-8.4695-9.7757-0.62874-3.294 1.2801-18.052 3.2298-24.971 1.1782-4.1812-1.2398-2.2867-8.2965 6.5-9.6652 12.035-15.004 20.073-20.39 30.699-5.4155 10.686-7.1155 11.548-12.381 6.2826-1.8778-1.8778-3.6965-4.5392-4.0416-5.9142-0.55099-2.1953 3.1354-21.309 5.0277-26.068 1.4296-3.5955-1.1948-1.4217-6.7894 5.6235-10.201 12.846-16.062 18.411-20.208 19.189-4.6493 0.8722-10.065-1.4675-11.699-5.0545-0.6284-1.3792-1.4566-2.5076-1.8404-2.5076-0.38384 0-2.3317 2.4606-4.3285 5.4681-4.8459 7.2984-20.116 25.01-26.118 30.292-6.0686 5.3418-9.81 5.6519-14.098 1.1683zm-69.026-35.269c9.761-7.3528 18.405-15.403 20.139-18.756 1.7974-3.4758 1.8769-8.305 0.16015-9.7297-2.0046-1.6636-9.2485 2.4467-15.826 8.9798-8.018 7.9643-16.283 24.846-12.164 24.846 0.33108 0 3.792-2.403 7.691-5.34zm588.12 22.378c-1.501-1.6586-1.6674-3.0116-1.0761-8.75 0.68726-6.67 4.7561-27.105 6.0806-30.538 0.37131-0.9625 0.33922-1.75-0.0713-1.75-1.0257 0-13.294 9.8911-22.968 18.517-11.559 10.308-12.21 10.684-15.514 8.9752-7.022-3.6312-7.8349-15.387-1.8921-27.359l3.4759-7.0025-17.574-0.63086 2e-3 2.8072c7e-3 8.0291-8.7031 28.571-15.415 36.355-6.4512 7.4824-14.699 9.9878-22.352 6.7902-5.648-2.3599-8.0264-5.1766-9.3446-11.067-3.7023-16.544 9.1013-54.422 37.728-111.62 10.291-20.56 9.8474-20.122 16.176-15.984 4.4624 2.9173 4.2957 4.0816-2.3727 16.569-22.577 42.278-41.388 91.481-41.411 108.31-0.0138 10.154 2.4502 10.894 9.7328 2.9261 6.3391-6.936 11.461-14.682 15.752-23.822 5.3744-11.448 5.4299-12.383 0.85901-14.451-8.8046-3.9838-9.6347-6.7583-1.8283-6.111 4.3097 0.35739 6.1627 1.0716 8.4396 3.253 2.4679 2.3644 3.9917 2.872 9.8888 3.2939 10.104 0.72293 13.459-0.20318 19.197-5.299 7.8242-6.949 12.195-8.7929 19.462-8.2096 3.3626 0.26992 8.2413 1.4319 10.842 2.5822l4.728 2.0914 0.93816-2.2111c0.51599-1.2161 3.4591-9.4111 6.5403-18.211 12.039-34.383 36.081-91.75 38.677-92.287 0.76382-0.15787 2.185 0.59287 3.1583 1.6683 1.6994 1.8779 1.6429 2.4042-1.4267 13.287-4.866 17.252-11.831 37.802-21.972 64.832-5.0558 13.475-13.604 37.775-18.996 54-11.312 34.038-13.844 41-14.914 41-0.42524 0-1.5722-0.8829-2.5487-1.9619zm-23.384-26.787c3.492-2.6121 9.6549-7.9058 13.695-11.764 6.6899-6.3879 7.3937-7.4361 7.878-11.733 0.65937-5.8499-1.1869-7.014-6.6048-4.1644-8.5436 4.4937-18.26 16.011-22.155 26.261-2.9334 7.7201-1.6082 7.9782 7.1863 1.3998zm192.87-4.4603c-2.8492-4.6851-3.3486-8.2273-1.9857-14.085 2.859-12.287 15.06-29.152 24.34-33.644 10.644-5.1525 19.523-0.30295 22.725 12.411 1.5216 6.0425 0.7987 11.594-2.5426 19.527-1.5057 3.575-2.9876 7.5841-3.2932 8.9092l-0.5556 2.4092 7.397-0.64195c4.0683-0.35307 17.297-2.6908 29.397-5.195 45.144-9.343 46.859-9.6411 53.247-9.2598 5.8338 0.34824 9.4679 1.8967 7.9691 3.3956-0.3578 0.35773-4.6662 1.021-9.5743 1.4739-11.637 1.0738-30.868 5.3439-55.41 12.303-21.597 6.1243-27.524 6.779-33.522 3.703-6.3022-3.2319-8.4149-6.2254-8.0926-11.466 0.1544-2.5114-0.017-4.8641-0.3814-5.2283-0.3641-0.36418-3.7163 2.2287-7.4492 5.7619-11.494 10.879-14.136 12.835-17.336 12.835-2.2822 0-3.4369-0.75153-4.9318-3.2096zm13.096-9.9752c17.593-13.907 24.749-23.428 22.054-29.343l-1.1493-2.5224-4.2599 2.168c-6.9061 3.5148-15.983 13.579-20.642 22.887-6.1948 12.377-5.1967 14.078 3.9966 6.8113zm-636.35-40.827c-4.937-3.0493-4.0762-7.9876 1.3923-7.9876 5.4106 0 14.739 5.7119 12.046 7.3761-1.9504 1.2054-11.754 1.6516-13.438 0.61156zm43.199-83.873-2.8853-2.8853 1.8708-6.5417c1.0289-3.5979 3.5719-11.71 5.6511-18.028l3.7803-11.486 3.5612-0.47777c1.9586-0.26277 8.0612-2.0979 13.561-4.0781 15.864-5.7115 26.72-4.8994 32.914 2.4623 2.6514 3.151 2.7907 3.7752 2.3181 10.386-0.39159 5.4775-1.3963 8.9139-4.5418 15.534-2.2214 4.675-4.3439 9.7258-4.7167 11.224-0.66433 2.6701-0.79285 2.712-6.4935 2.1162-6.3689-0.66567-22.237 0.98166-31.125 3.2312-8.2288 2.0827-10.604 1.8337-13.895-1.4567zm47.504-17.317c0.8166-2.0409 1.1587-3.887 0.76015-4.1024-0.39852-0.21545-4.5496 0.32756-9.2246 1.2067-8.2522 1.5518-8.5531 1.7071-10.322 5.3271-1.0022 2.0508-1.5706 4.1357-1.2632 4.6331 0.30743 0.49744 2.9274 1.2123 5.8222 1.5886 2.8948 0.37627 6.6132 1.2535 8.2632 1.9493l3 1.2652 0.73985-4.0784c0.40692-2.2431 1.408-5.7482 2.2246-7.7891zm-24.464 4.5054v-3.5332l-5.6568 0.70677c-3.1112 0.38872-6.2169 0.9217-6.9015 1.1844-1.2501 0.4797-2.6526 4.1851-1.9919 5.2628 0.19435 0.31705 3.5476 0.42703 7.4518 0.2444l7.0984-0.33206zm-5-9.6781c4.1125-1.2292 4.5596-1.68 5.1924-5.2348 1.2935-7.2668 1.2347-7.3898-3.5332-7.3898h-4.3409l-1.2866 5.75c-0.70764 3.1625-1.5024 6.3125-1.7661 7-0.6004 1.5652 0.13191 1.5492 5.7345-0.12539zm32.833-4.3746c0.49667-0.9625 1.4661-4.1489 2.1543-7.0809 1.7151-7.3069 0.98604-7.8089-8.3311-5.736l-7.5071 1.6702-1.9833 5.8728c-1.0908 3.23-1.7242 6.1318-1.4077 6.4483 0.31657 0.31656 4.0847 0.57557 8.3737 0.57557 6.4161 0 7.9582-0.31014 8.7012-1.75z"/>
 </g>
</svg>
